<svg width="33" height="33" viewBox="0 0 33 33" fill="none" xmlns="http://www.w3.org/2000/svg">
  <path
    d="M16.5 27.5C19.4174 27.5 22.2153 26.3411 24.2782 24.2782C26.3411 22.2153 27.5 19.4174 27.5 16.5C27.5 13.5826 26.3411 10.7847 24.2782 8.72183C22.2153 6.65893 19.4174 5.5 16.5 5.5C13.5826 5.5 10.7847 6.65893 8.72183 8.72183C6.65893 10.7847 5.5 13.5826 5.5 16.5C5.5 19.4174 6.65893 22.2153 8.72183 24.2782C10.7847 26.3411 13.5826 27.5 16.5 27.5ZM16.5 30.25C8.90588 30.25 2.75 24.0941 2.75 16.5C2.75 8.90588 8.90588 2.75 16.5 2.75C24.0941 2.75 30.25 8.90588 30.25 16.5C30.25 24.0941 24.0941 30.25 16.5 30.25Z"
    fill="white" />
  <path
    d="M21.2121 20.8285V13.9535H14.3371V13.5245C14.3371 12.8136 14.9146 12.2347 15.6269 12.2347H16.9153V9.65662H15.6269C14.6014 9.65771 13.6182 10.0656 12.8931 10.7907C12.168 11.5158 11.7601 12.499 11.759 13.5245V13.9535H10.0403V16.5316H11.759V20.8285H10.0403V23.4066H16.0559V20.8285H14.3371V16.5316H18.6588V20.8285H16.9153V23.4066H22.9309V20.8285H21.2121Z"
    fill="white" />
  <path
    d="M19.8028 12.3365C20.5629 12.3365 21.1791 11.7203 21.1791 10.9601C21.1791 10.2 20.5629 9.58374 19.8028 9.58374C19.0426 9.58374 18.4264 10.2 18.4264 10.9601C18.4264 11.7203 19.0426 12.3365 19.8028 12.3365Z"
    fill="white" />
</svg>